<svg width="14" height="13" viewBox="0 0 14 13" fill="none" xmlns="http://www.w3.org/2000/svg">
<path d="M5.2825 7.87104C5.2825 7.87104 5.28841 7.88654 5.2999 7.91656C5.30532 7.93125 5.31349 7.95094 5.3205 7.97164C5.32779 7.9926 5.33623 8.01693 5.34578 8.04442C5.35568 8.07226 5.36373 8.10039 5.37427 8.13296C5.38432 8.1651 5.39622 8.20106 5.40555 8.23642C5.41565 8.27257 5.42651 8.3114 5.4381 8.35283C5.44883 8.3934 5.45784 8.43413 5.4687 8.4785C5.51182 8.65568 5.54737 8.85398 5.5676 9.06093C5.57869 9.16535 5.58341 9.26944 5.58572 9.37647C5.58588 9.48136 5.58335 9.58894 5.57354 9.69401C5.56367 9.79903 5.54807 9.90312 5.52601 10.0049C5.50356 10.1064 5.47466 10.2055 5.43875 10.3013C5.36695 10.4928 5.26625 10.6697 5.13545 10.8262C5.07074 10.9051 4.99512 10.9755 4.9202 11.0484C4.84421 11.1202 4.76645 11.192 4.68528 11.2617C4.52372 11.4017 4.35201 11.5364 4.17152 11.6623C3.99163 11.7888 3.80242 11.906 3.60833 12.0135C3.51104 12.067 3.41222 12.1178 3.31285 12.1663C3.21301 12.2142 3.11228 12.2595 3.01124 12.3021C2.80854 12.3867 2.6043 12.4601 2.40181 12.5209C2.1997 12.5821 1.99958 12.6309 1.80768 12.6688C1.42452 12.7452 1.07284 12.7766 0.811437 12.7832C0.778496 12.7838 0.747325 12.7844 0.717977 12.7849C0.688108 12.7848 0.660114 12.7848 0.634047 12.7848C0.580559 12.7833 0.535065 12.7821 0.498165 12.7812C0.460015 12.7789 0.430771 12.7772 0.411059 12.7761C0.390747 12.7743 0.380278 12.7734 0.380278 12.7734C0.380278 12.7734 0.379367 12.7629 0.377622 12.7426C0.376476 12.7229 0.374758 12.6937 0.372518 12.6555C0.371528 12.6186 0.370331 12.5731 0.368898 12.5196C0.368872 12.4936 0.368846 12.4656 0.36882 12.4357C0.369341 12.4064 0.369862 12.3752 0.370435 12.3422C0.377127 12.0808 0.408428 11.7292 0.484858 11.346C0.522774 11.1541 0.571601 10.954 0.632771 10.7519C0.693576 10.5494 0.766986 10.3451 0.85154 10.1424C0.894143 10.0414 0.939428 9.9407 0.987396 9.84083C1.03583 9.74146 1.08661 9.64263 1.14013 9.54534C1.24765 9.35126 1.36483 9.16205 1.49134 8.98216C1.61725 8.80167 1.75193 8.62995 1.89198 8.4684C1.96161 8.38723 2.03343 8.30944 2.10528 8.23348C2.17817 8.15856 2.24856 8.08294 2.32749 8.01823C2.48394 7.88742 2.66089 7.78672 2.85239 7.71493C2.94815 7.67904 3.04728 7.65011 3.14871 7.62767C3.25053 7.60561 3.35462 7.59001 3.45964 7.58014C3.56472 7.57032 3.67232 7.5678 3.77718 7.56795C3.88421 7.57025 3.98827 7.57499 4.09272 7.58608C4.29967 7.60631 4.49797 7.64183 4.67515 7.68498C4.7195 7.69582 4.76023 7.70485 4.80083 7.71558C4.84226 7.72717 4.88108 7.73803 4.91723 7.74813C4.95259 7.75748 4.98858 7.76935 5.02069 7.77941C5.05329 7.78993 5.08139 7.798 5.10923 7.8079C5.13673 7.81745 5.16102 7.82589 5.18201 7.83318C5.20271 7.84019 5.2224 7.84836 5.23709 7.85378C5.26701 7.86511 5.2825 7.87104 5.2825 7.87104Z" fill="#FFB636"/>
<path d="M1.94943 4.53789L0.0610955 6.42622C-0.0694215 6.55673 0.0230237 6.7799 0.207602 6.7799H1.79466C1.84961 6.7799 1.90232 6.80173 1.94117 6.84058L2.97166 7.87107L4.64534 4.47721H2.09593C2.04099 4.47718 1.98828 4.49903 1.94943 4.53789Z" fill="#FF473E"/>
<path d="M5.57695 10.0284L6.60744 11.0588C6.64629 11.0977 6.66812 11.1504 6.66812 11.2054V12.7924C6.66812 12.977 6.89129 13.0694 7.0218 12.9389L8.91013 11.0506C8.94899 11.0117 8.97081 10.959 8.97081 10.9041V8.35468L5.57695 10.0284Z" fill="#FF473E"/>
<path d="M13.1154 0.270372C13.1154 0.270372 13.1161 0.27597 13.1174 0.28696C13.1187 0.297871 13.121 0.314693 13.1228 0.335448C13.1262 0.376931 13.1339 0.4412 13.1376 0.518594C13.1494 0.677808 13.1573 0.901942 13.1517 1.1716C13.1463 1.4414 13.1273 1.75658 13.0861 2.0987C13.0769 2.18532 13.0638 2.27107 13.0511 2.36018C13.0393 2.4502 13.0225 2.53814 13.0071 2.6303C12.9756 2.81381 12.9363 3.00055 12.8909 3.19104C12.7998 3.57171 12.6808 3.96383 12.5314 4.35499C12.382 4.74615 12.2027 5.13687 11.9925 5.51642C11.782 5.89565 11.5426 6.26556 11.2749 6.61716C11.0077 6.96911 10.7126 7.30308 10.396 7.61552C10.0794 7.92799 9.74177 8.21933 9.38699 8.48375C9.29827 8.54982 9.20903 8.61479 9.11778 8.67695C9.02752 8.74012 8.93531 8.80054 8.84341 8.86038C8.65873 8.97918 8.47014 9.09035 8.2796 9.19467C7.89839 9.40318 7.50775 9.5826 7.11638 9.73179C6.72501 9.88097 6.33341 10.0005 5.95381 10.0927C5.76374 10.1385 5.57799 10.1788 5.39479 10.2106C5.34925 10.2188 5.30427 10.2269 5.25993 10.2349C5.21524 10.2425 5.1699 10.2488 5.12589 10.2557C5.08173 10.2625 5.03819 10.2691 4.9953 10.2757C4.95145 10.2812 4.90827 10.2867 4.86577 10.2921C4.52549 10.3352 4.2124 10.3563 3.94457 10.3636C3.67703 10.3713 3.45417 10.3647 3.29678 10.3547C3.22017 10.3518 3.15632 10.3445 3.11533 10.3416C3.09478 10.3401 3.07809 10.3378 3.06731 10.3367C3.05642 10.3355 3.05088 10.3349 3.05088 10.3349C2.92635 10.321 2.8319 10.2222 2.81862 10.1026C2.81862 10.1026 2.81799 10.0971 2.81679 10.0862C2.8157 10.0754 2.81344 10.0588 2.81193 10.0382C2.80903 9.99722 2.80169 9.93339 2.7988 9.85676C2.78885 9.69936 2.78224 9.47653 2.78987 9.20896C2.79724 8.94113 2.81833 8.62804 2.86138 8.28777C2.86679 8.24527 2.87229 8.20207 2.87786 8.15824C2.8844 8.11535 2.89104 8.07181 2.89778 8.02764C2.90468 7.98363 2.91101 7.93832 2.91864 7.89361C2.92664 7.84926 2.93473 7.80429 2.94294 7.75875C2.97473 7.57555 3.01504 7.3898 3.06085 7.19972C3.15301 6.8201 3.27251 6.42852 3.42172 6.03716C3.57094 5.64579 3.75036 5.25515 3.95884 4.87393C4.06319 4.68342 4.17436 4.4948 4.29313 4.31012C4.35297 4.21822 4.41339 4.12601 4.47656 4.03576C4.53872 3.94448 4.6037 3.85527 4.66976 3.76655C4.93418 3.41176 5.22553 3.07407 5.53799 2.75751C5.85043 2.44093 6.1844 2.14586 6.53635 1.87861C6.88795 1.61101 7.25786 1.37154 7.6371 1.16105C8.01664 0.950872 8.40738 0.771555 8.79852 0.622132C9.18968 0.472709 9.5818 0.353755 9.96247 0.262637C10.153 0.217248 10.3397 0.177926 10.5232 0.146417C10.6154 0.131079 10.7033 0.114283 10.7933 0.102486C10.8824 0.089778 10.9682 0.0766013 11.0548 0.0674089C11.3969 0.0262122 11.7121 0.00720232 11.9819 0.00181186C12.2516 -0.00373486 12.4757 0.00415553 12.6349 0.0159521C12.7123 0.0196238 12.7766 0.027384 12.8181 0.0307693C12.8388 0.032488 12.8556 0.0348578 12.8666 0.0361077C12.8775 0.0374358 12.8831 0.0381129 12.8831 0.0381129C13.0073 0.0530864 13.1011 0.151495 13.1154 0.270372Z" fill="#ADBBBC"/>
<path d="M6.27862 6.87492C6.27862 6.87492 6.28377 6.8889 6.2938 6.91598C6.30226 6.94153 6.31367 6.97827 6.32153 7.01921C6.34018 7.10397 6.34635 7.20714 6.31265 7.29688C6.29604 7.34198 6.26531 7.37959 6.23638 7.42505C6.20667 7.46974 6.17453 7.51807 6.14021 7.56971C6.07149 7.67291 5.99394 7.78934 5.90936 7.91637C5.824 8.04261 5.73121 8.17907 5.63197 8.32227C5.5327 8.46547 5.42705 8.61549 5.31648 8.76944C5.26084 8.84603 5.20425 8.92392 5.14696 9.00274C5.08886 9.08076 5.03006 9.15974 4.97082 9.23932C4.85132 9.39755 4.72903 9.55741 4.60468 9.7152C4.48081 9.87345 4.35537 10.0302 4.23063 10.1832C4.10613 10.3364 3.98405 10.4876 3.8639 10.632C3.80406 10.7044 3.74523 10.7756 3.68763 10.8453C3.62924 10.9142 3.57615 10.9856 3.51448 11.0452C3.45321 11.1052 3.38251 11.1524 3.30126 11.1852C3.22071 11.2187 3.13254 11.2408 3.04728 11.2613C2.87619 11.3018 2.71182 11.3315 2.56045 11.352C2.48482 11.3623 2.41251 11.3705 2.3442 11.3766C2.27626 11.383 2.21053 11.3856 2.15293 11.3898C2.09489 11.3934 2.03947 11.3931 1.99317 11.3948C1.94617 11.3957 1.90385 11.3942 1.87073 11.3941C1.8369 11.3933 1.80987 11.3917 1.79219 11.3911C1.77388 11.3898 1.76443 11.3892 1.76443 11.3892C1.76443 11.3892 1.7638 11.3797 1.76255 11.3614C1.76195 11.3437 1.76026 11.3167 1.75951 11.2829C1.75945 11.2498 1.75792 11.2075 1.75885 11.1604C1.76047 11.1141 1.76018 11.0587 1.76385 11.0007C1.76797 10.9431 1.77057 10.8773 1.77703 10.8094C1.78313 10.7411 1.79125 10.6688 1.80161 10.5932C1.82216 10.4418 1.85177 10.2774 1.89229 10.1063C1.91286 10.0211 1.93489 9.93292 1.96841 9.85235C2.00122 9.77108 2.04846 9.7004 2.1084 9.63913C2.16798 9.57749 2.23941 9.52439 2.30834 9.46601C2.37806 9.40841 2.44925 9.34958 2.52167 9.28974C2.66602 9.16959 2.81724 9.04748 2.97049 8.92301C3.12348 8.79827 3.28019 8.67283 3.43844 8.54895C3.59622 8.42458 3.75609 8.30232 3.91431 8.18282C3.99392 8.12355 4.07288 8.06475 4.15089 8.00668C4.22972 7.94939 4.30758 7.8928 4.38419 7.83715C4.53815 7.72661 4.68817 7.62093 4.83137 7.52167C4.97459 7.42243 5.11102 7.32962 5.23727 7.24428C5.3643 7.1597 5.48072 7.08215 5.58393 7.01343C5.63556 6.9791 5.6839 6.94697 5.72858 6.91726C5.77402 6.88833 5.81163 6.8576 5.85676 6.84098C5.94649 6.80729 6.04967 6.81346 6.13443 6.8321C6.17537 6.83997 6.21211 6.85137 6.23766 6.85984C6.26463 6.86976 6.27862 6.87492 6.27862 6.87492Z" fill="#FF473E"/>
<path d="M9.37767 5.18649C9.37767 5.96556 8.7461 6.59713 7.96703 6.59713C7.18797 6.59713 6.5564 5.96556 6.5564 5.18649C6.5564 4.40743 7.18797 3.77586 7.96703 3.77586C8.7461 3.77586 9.37767 4.40743 9.37767 5.18649ZM10.0867 2.16885C9.59081 2.16885 9.18879 2.57087 9.18879 3.06679C9.18879 3.56271 9.59081 3.96473 10.0867 3.96473C10.5827 3.96473 10.9847 3.56271 10.9847 3.06679C10.9847 2.57087 10.5827 2.16885 10.0867 2.16885Z" fill="#2B3B47"/>
</svg>
